<svg width="26" height="26" viewBox="0 0 26 26" fill="none" xmlns="http://www.w3.org/2000/svg">
<path d="M0 12.7832C0 9.30827 1.30452 6.31185 3.91357 3.79395C6.53402 1.26465 9.60449 0 13.125 0C16.6227 0 19.6248 1.25895 22.1313 3.77686C24.6493 6.28337 25.9082 9.28548 25.9082 12.7832C25.9082 15.6771 25.367 17.9785 24.2847 19.6875C23.2137 21.3851 21.8978 22.2339 20.3369 22.2339C18.3773 22.2339 17.0614 20.9123 16.3892 18.269C16.1613 18.645 15.8195 19.0096 15.3638 19.3628C14.4295 20.0578 13.3244 20.4053 12.0483 20.4053C10.1799 20.4053 8.67594 19.6875 7.53662 18.252C6.40869 16.8164 5.84473 15.153 5.84473 13.2617C5.84473 11.2337 6.51693 9.46208 7.86133 7.94678C9.20573 6.43148 11.0913 5.67383 13.5181 5.67383C14.8739 5.67383 16.11 5.94157 17.2266 6.47705C17.6709 6.70492 18.0811 6.97266 18.457 7.28027V15.1929C18.457 16.6626 18.6336 17.7791 18.9868 18.5425C19.3514 19.2944 19.8014 19.6704 20.3369 19.6704C21.2484 19.6704 21.875 19.1349 22.2168 18.064C22.57 16.993 22.7466 15.2327 22.7466 12.7832C22.7466 9.95768 21.8066 7.54801 19.9268 5.5542C18.0583 3.56038 15.791 2.56348 13.125 2.56348C10.4704 2.56348 8.14616 3.56608 6.15234 5.57129C4.15853 7.5765 3.16162 9.98047 3.16162 12.7832C3.16162 15.6087 4.09587 18.0184 5.96436 20.0122C7.84424 22.006 10.1172 23.0029 12.7832 23.0029C13.6491 23.0029 14.4637 22.9175 15.2271 22.7466C15.6942 22.6554 16.0474 22.5757 16.2866 22.5073L16.7651 25.0708C16.5601 25.1392 16.224 25.2189 15.7568 25.3101C14.9821 25.4696 13.9909 25.5493 12.7832 25.5493C9.28548 25.5493 6.27767 24.2961 3.75977 21.7896C1.25326 19.283 0 16.2809 0 12.7832ZM8.15186 13.3301C8.15186 14.6403 8.52783 15.791 9.27979 16.7822C10.0317 17.7734 11.0116 18.269 12.2192 18.269C13.7118 18.269 14.9821 17.7336 16.0303 16.6626V8.44238C15.9391 8.37402 15.7397 8.27718 15.4321 8.15186C14.8511 7.94678 14.2472 7.84424 13.6206 7.84424C11.8888 7.84424 10.5444 8.39111 9.5874 9.48486C8.63037 10.5786 8.15186 11.8604 8.15186 13.3301Z" fill="white"/>
</svg>
