<svg width="579" height="188" viewBox="0 0 579 188" fill="none" xmlns="http://www.w3.org/2000/svg">
<path d="M64.8 72H16.8C13.728 72 10.912 71.264 8.35199 69.792C5.79199 68.256 3.74399 66.24 2.20799 63.744C0.735992 61.184 -7.62939e-06 58.336 -7.62939e-06 55.2C-7.62939e-06 52.064 0.735992 49.248 2.20799 46.752C3.74399 44.192 5.79199 42.176 8.35199 40.704C10.912 39.168 13.728 38.4 16.8 38.4H50.4V48H16.8C14.816 48 13.12 48.704 11.712 50.112C10.304 51.52 9.59999 53.216 9.59999 55.2C9.59999 57.184 10.304 58.88 11.712 60.288C13.12 61.696 14.816 62.4 16.8 62.4H55.2V36C55.2 34.016 54.496 32.32 53.088 30.912C51.68 29.504 49.984 28.8 48 28.8H9.59999V19.2H48C51.136 19.2 53.952 19.968 56.448 21.504C59.008 22.976 61.024 24.992 62.496 27.552C64.032 30.048 64.8 32.864 64.8 36V72ZM87.804 72H78.204V19.2H114.204C117.852 19.2 121.244 19.904 124.38 21.312C127.58 22.656 130.364 24.544 132.732 26.976C135.164 29.408 137.052 32.224 138.396 35.424C139.74 38.56 140.412 41.952 140.412 45.6V72H130.812V45.6C130.812 42.528 130.076 39.744 128.604 37.248C127.132 34.688 125.116 32.64 122.556 31.104C120.06 29.568 117.276 28.8 114.204 28.8H87.804V72ZM212.239 72H202.639V28.8H176.239C173.167 28.8 170.383 29.568 167.887 31.104C165.391 32.576 163.375 34.592 161.839 37.152C160.367 39.712 159.631 42.528 159.631 45.6C159.631 48.672 160.367 51.488 161.839 54.048C163.375 56.544 165.391 58.56 167.887 60.096C170.383 61.568 173.167 62.336 176.239 62.4H197.839V72H176.239C172.591 72 169.167 71.328 165.967 69.984C162.831 68.576 160.047 66.656 157.615 64.224C155.247 61.792 153.391 59.008 152.047 55.872C150.703 52.672 150.031 49.248 150.031 45.6C150.031 41.952 150.703 38.56 152.047 35.424C153.391 32.224 155.247 29.408 157.615 26.976C160.047 24.544 162.831 22.656 165.967 21.312C169.167 19.904 172.591 19.2 176.239 19.2H202.639V-5.72205e-06H212.239V72ZM278.464 28.8H242.464C240.48 28.8 238.784 29.504 237.376 30.912C235.968 32.32 235.264 34.016 235.264 36V72H225.664V36C225.664 32.864 226.4 30.048 227.872 27.552C229.408 24.992 231.456 22.976 234.016 21.504C236.576 19.968 239.392 19.2 242.464 19.2H278.464V28.8ZM346.363 36C346.363 39.072 345.595 41.888 344.059 44.448C342.587 47.008 340.571 49.056 338.011 50.592C335.515 52.064 332.699 52.8 329.563 52.8H292.795C294.139 55.616 296.123 57.92 298.747 59.712C301.435 61.504 304.443 62.4 307.771 62.4H339.163V72H307.771C304.123 72 300.699 71.328 297.499 69.984C294.363 68.576 291.579 66.656 289.147 64.224C286.779 61.792 284.923 59.008 283.579 55.872C282.235 52.672 281.563 49.248 281.563 45.6C281.563 41.952 282.235 38.56 283.579 35.424C284.923 32.224 286.779 29.408 289.147 26.976C291.579 24.544 294.363 22.656 297.499 21.312C300.699 19.904 304.123 19.2 307.771 19.2H329.563C332.699 19.2 335.515 19.968 338.011 21.504C340.571 22.976 342.587 24.992 344.059 27.552C345.595 30.048 346.363 32.864 346.363 36ZM329.563 43.2C331.547 43.2 333.243 42.496 334.651 41.088C336.059 39.68 336.763 37.984 336.763 36C336.763 34.016 336.059 32.32 334.651 30.912C333.243 29.504 331.547 28.8 329.563 28.8H307.771C304.955 28.8 302.363 29.44 299.995 30.72C297.691 32 295.771 33.728 294.235 35.904C292.699 38.08 291.739 40.512 291.355 43.2H329.563ZM417.238 36C417.238 39.072 416.47 41.888 414.934 44.448C413.462 47.008 411.446 49.056 408.886 50.592C406.39 52.064 403.574 52.8 400.438 52.8H363.67C365.014 55.616 366.998 57.92 369.622 59.712C372.31 61.504 375.318 62.4 378.646 62.4H410.038V72H378.646C374.998 72 371.574 71.328 368.374 69.984C365.238 68.576 362.454 66.656 360.022 64.224C357.654 61.792 355.798 59.008 354.454 55.872C353.11 52.672 352.438 49.248 352.438 45.6C352.438 41.952 353.11 38.56 354.454 35.424C355.798 32.224 357.654 29.408 360.022 26.976C362.454 24.544 365.238 22.656 368.374 21.312C371.574 19.904 374.998 19.2 378.646 19.2H400.438C403.574 19.2 406.39 19.968 408.886 21.504C411.446 22.976 413.462 24.992 414.934 27.552C416.47 30.048 417.238 32.864 417.238 36ZM400.438 43.2C402.422 43.2 404.118 42.496 405.526 41.088C406.934 39.68 407.638 37.984 407.638 36C407.638 34.016 406.934 32.32 405.526 30.912C404.118 29.504 402.422 28.8 400.438 28.8H378.646C375.83 28.8 373.238 29.44 370.87 30.72C368.566 32 366.646 33.728 365.11 35.904C363.574 38.08 362.614 40.512 362.23 43.2H400.438ZM486.394 72H438.394C435.322 72 432.506 71.264 429.946 69.792C427.386 68.256 425.338 66.24 423.802 63.744C422.33 61.184 421.594 58.336 421.594 55.2C421.594 52.064 422.33 49.248 423.802 46.752C425.338 44.192 427.386 42.176 429.946 40.704C432.506 39.168 435.322 38.4 438.394 38.4H471.994V48H438.394C436.41 48 434.714 48.704 433.306 50.112C431.898 51.52 431.194 53.216 431.194 55.2C431.194 57.184 431.898 58.88 433.306 60.288C434.714 61.696 436.41 62.4 438.394 62.4H476.794V36C476.794 34.016 476.09 32.32 474.682 30.912C473.274 29.504 471.578 28.8 469.594 28.8H431.194V19.2H469.594C472.73 19.2 475.546 19.968 478.042 21.504C480.602 22.976 482.618 24.992 484.09 27.552C485.626 30.048 486.394 32.864 486.394 36V72ZM578.518 72H565.558L545.398 52.8H515.926V43.296H554.518C557.206 43.296 559.638 42.656 561.814 41.376C563.99 40.032 565.718 38.272 566.998 36.096C568.278 33.856 568.918 31.424 568.918 28.8C568.918 26.112 568.278 23.68 566.998 21.504C565.718 19.328 563.99 17.6 561.814 16.32C559.638 15.04 557.206 14.4 554.518 14.4H510.55V72H500.95V4.8H554.518C558.934 4.8 562.966 5.888 566.614 8.064C570.262 10.176 573.142 13.056 575.254 16.704C577.43 20.352 578.518 24.384 578.518 28.8C578.518 32.768 577.622 36.448 575.83 39.84C574.102 43.232 571.702 46.048 568.63 48.288C565.622 50.464 562.198 51.872 558.358 52.512L578.518 72ZM353.239 188H343.639V144.8H317.239C314.167 144.8 311.383 145.568 308.887 147.104C306.391 148.576 304.375 150.592 302.839 153.152C301.367 155.712 300.631 158.528 300.631 161.6C300.631 164.672 301.367 167.488 302.839 170.048C304.375 172.544 306.391 174.56 308.887 176.096C311.383 177.568 314.167 178.336 317.239 178.4H338.839V188H317.239C313.591 188 310.167 187.328 306.967 185.984C303.831 184.576 301.047 182.656 298.615 180.224C296.247 177.792 294.391 175.008 293.047 171.872C291.703 168.672 291.031 165.248 291.031 161.6C291.031 157.952 291.703 154.56 293.047 151.424C294.391 148.224 296.247 145.408 298.615 142.976C301.047 140.544 303.831 138.656 306.967 137.312C310.167 135.904 313.591 135.2 317.239 135.2H343.639V116H353.239V188ZM428.488 152C428.488 155.072 427.72 157.888 426.184 160.448C424.712 163.008 422.696 165.056 420.136 166.592C417.64 168.064 414.824 168.8 411.688 168.8H374.92C376.264 171.616 378.248 173.92 380.872 175.712C383.56 177.504 386.568 178.4 389.896 178.4H421.288V188H389.896C386.248 188 382.824 187.328 379.624 185.984C376.488 184.576 373.704 182.656 371.272 180.224C368.904 177.792 367.048 175.008 365.704 171.872C364.36 168.672 363.688 165.248 363.688 161.6C363.688 157.952 364.36 154.56 365.704 151.424C367.048 148.224 368.904 145.408 371.272 142.976C373.704 140.544 376.488 138.656 379.624 137.312C382.824 135.904 386.248 135.2 389.896 135.2H411.688C414.824 135.2 417.64 135.968 420.136 137.504C422.696 138.976 424.712 140.992 426.184 143.552C427.72 146.048 428.488 148.864 428.488 152ZM411.688 159.2C413.672 159.2 415.368 158.496 416.776 157.088C418.184 155.68 418.888 153.984 418.888 152C418.888 150.016 418.184 148.32 416.776 146.912C415.368 145.504 413.672 144.8 411.688 144.8H389.896C387.08 144.8 384.488 145.44 382.12 146.72C379.816 148 377.896 149.728 376.36 151.904C374.824 154.08 373.864 156.512 373.48 159.2H411.688ZM499.412 135.2L470.228 188H459.284L430.292 135.2H441.524L464.756 178.016L488.18 135.2H499.412ZM558.868 148.352H553.684V134.528C553.684 132.16 552.852 130.144 551.188 128.48C549.524 126.816 547.508 125.984 545.14 125.984H543.892V148.352H538.708V120.8H545.14C547.444 120.8 549.588 121.344 551.572 122.432C553.556 123.52 555.156 124.96 556.372 126.752C557.652 124.96 559.252 123.52 561.172 122.432C563.092 121.344 565.172 120.8 567.412 120.8H573.94V148.352H568.756V125.984H567.412C565.108 125.984 563.124 126.88 561.46 128.672C559.86 130.4 558.996 132.48 558.868 134.912V148.352ZM523.636 148.352H518.356V125.984H505.204V120.8H536.692V125.984H523.636V148.352Z" fill="white"/>
</svg>
